<svg width="100" height="101" viewBox="0 0 100 101" fill="none" xmlns="http://www.w3.org/2000/svg">
<path d="M33.1833 13.9295C31.7583 14.241 30.3917 15.3351 29.7667 16.6649C29.3667 17.515 29.25 18.0369 29.25 18.9627C29.25 20.04 29.575 21.0837 30.175 21.9254C30.325 22.1358 36.7583 28.6334 44.475 36.3684L58.5 50.4326L47.9333 61.1807C30.3417 79.0661 30.4167 78.982 30.0583 79.6721C29.6583 80.4633 29.475 81.1871 29.475 82.0625C29.4667 83.8047 30.275 85.3786 31.6833 86.3297C32.625 86.961 33.3083 87.1545 34.5833 87.1545C35.4917 87.1461 35.6917 87.1209 36.1833 86.9273C36.4917 86.8095 36.9583 86.5822 37.2167 86.4307C37.5667 86.2203 41.8667 81.8941 53.5333 70.035C62.2417 61.1723 69.525 53.732 69.7167 53.4879C71.0167 51.7961 71.075 49.3469 69.875 47.512C69.6333 47.1501 45.3083 22.6745 39.2417 16.6902C37.3917 14.8638 37.1167 14.6281 36.55 14.3504C35.475 13.8285 34.3167 13.6854 33.1833 13.9295Z" fill="white"/>
</svg>
