<svg width="122" height="97" viewBox="0 0 122 97" fill="none" xmlns="http://www.w3.org/2000/svg">
<path d="M3 94V86.368H0.048V85.6H6.84V86.368H3.888V94H3ZM14.4026 85.6H15.2786V94H14.4026V85.6ZM9.14663 94H8.25863V85.6H9.14663V94ZM14.4866 90.124H9.05063V89.344H14.4866V90.124ZM18.8123 89.356H23.2523V90.112H18.8123V89.356ZM18.9083 93.232H23.9603V94H18.0203V85.6H23.7803V86.368H18.9083V93.232ZM29.6963 94.072C29.0643 94.072 28.4763 93.968 27.9323 93.76C27.3963 93.544 26.9283 93.244 26.5283 92.86C26.1363 92.468 25.8283 92.016 25.6043 91.504C25.3883 90.984 25.2803 90.416 25.2803 89.8C25.2803 89.184 25.3883 88.62 25.6043 88.108C25.8283 87.588 26.1363 87.136 26.5283 86.752C26.9283 86.36 27.3963 86.06 27.9323 85.852C28.4683 85.636 29.0563 85.528 29.6963 85.528C30.3283 85.528 30.9123 85.636 31.4483 85.852C31.9843 86.06 32.4483 86.356 32.8403 86.74C33.2403 87.124 33.5483 87.576 33.7643 88.096C33.9883 88.616 34.1003 89.184 34.1003 89.8C34.1003 90.416 33.9883 90.984 33.7643 91.504C33.5483 92.024 33.2403 92.476 32.8403 92.86C32.4483 93.244 31.9843 93.544 31.4483 93.76C30.9123 93.968 30.3283 94.072 29.6963 94.072ZM29.6963 93.28C30.2003 93.28 30.6643 93.196 31.0883 93.028C31.5203 92.852 31.8923 92.608 32.2043 92.296C32.5243 91.976 32.7723 91.608 32.9483 91.192C33.1243 90.768 33.2123 90.304 33.2123 89.8C33.2123 89.296 33.1243 88.836 32.9483 88.42C32.7723 87.996 32.5243 87.628 32.2043 87.316C31.8923 86.996 31.5203 86.752 31.0883 86.584C30.6643 86.408 30.2003 86.32 29.6963 86.32C29.1923 86.32 28.7243 86.408 28.2923 86.584C27.8603 86.752 27.4843 86.996 27.1643 87.316C26.8523 87.628 26.6043 87.996 26.4202 88.42C26.2442 88.836 26.1562 89.296 26.1562 89.8C26.1562 90.296 26.2442 90.756 26.4202 91.18C26.6043 91.604 26.8523 91.976 27.1643 92.296C27.4843 92.608 27.8603 92.852 28.2923 93.028C28.7243 93.196 29.1923 93.28 29.6963 93.28ZM36.0907 94V85.6H39.5107C40.4067 85.6 41.1907 85.78 41.8627 86.14C42.5427 86.492 43.0707 86.984 43.4467 87.616C43.8227 88.248 44.0107 88.976 44.0107 89.8C44.0107 90.624 43.8227 91.352 43.4467 91.984C43.0707 92.616 42.5427 93.112 41.8627 93.472C41.1907 93.824 40.4067 94 39.5107 94H36.0907ZM36.9787 93.232H39.4627C40.2067 93.232 40.8507 93.088 41.3947 92.8C41.9467 92.504 42.3747 92.1 42.6787 91.588C42.9827 91.068 43.1347 90.472 43.1347 89.8C43.1347 89.12 42.9827 88.524 42.6787 88.012C42.3747 87.5 41.9467 87.1 41.3947 86.812C40.8507 86.516 40.2067 86.368 39.4627 86.368H36.9787V93.232ZM49.6767 94.072C49.0447 94.072 48.4567 93.968 47.9127 93.76C47.3767 93.544 46.9087 93.244 46.5087 92.86C46.1167 92.468 45.8087 92.016 45.5847 91.504C45.3687 90.984 45.2607 90.416 45.2607 89.8C45.2607 89.184 45.3687 88.62 45.5847 88.108C45.8087 87.588 46.1167 87.136 46.5087 86.752C46.9087 86.36 47.3767 86.06 47.9127 85.852C48.4487 85.636 49.0367 85.528 49.6767 85.528C50.3087 85.528 50.8927 85.636 51.4287 85.852C51.9647 86.06 52.4287 86.356 52.8207 86.74C53.2207 87.124 53.5287 87.576 53.7447 88.096C53.9687 88.616 54.0807 89.184 54.0807 89.8C54.0807 90.416 53.9687 90.984 53.7447 91.504C53.5287 92.024 53.2207 92.476 52.8207 92.86C52.4287 93.244 51.9647 93.544 51.4287 93.76C50.8927 93.968 50.3087 94.072 49.6767 94.072ZM49.6767 93.28C50.1807 93.28 50.6447 93.196 51.0687 93.028C51.5007 92.852 51.8727 92.608 52.1847 92.296C52.5047 91.976 52.7527 91.608 52.9287 91.192C53.1047 90.768 53.1927 90.304 53.1927 89.8C53.1927 89.296 53.1047 88.836 52.9287 88.42C52.7527 87.996 52.5047 87.628 52.1847 87.316C51.8727 86.996 51.5007 86.752 51.0687 86.584C50.6447 86.408 50.1807 86.32 49.6767 86.32C49.1727 86.32 48.7047 86.408 48.2727 86.584C47.8407 86.752 47.4647 86.996 47.1447 87.316C46.8327 87.628 46.5847 87.996 46.4007 88.42C46.2247 88.836 46.1367 89.296 46.1367 89.8C46.1367 90.296 46.2247 90.756 46.4007 91.18C46.5847 91.604 46.8327 91.976 47.1447 92.296C47.4647 92.608 47.8407 92.852 48.2727 93.028C48.7047 93.196 49.1727 93.28 49.6767 93.28ZM56.0711 94V85.6H59.2151C59.9271 85.6 60.5391 85.716 61.0511 85.948C61.5631 86.172 61.9551 86.5 62.2271 86.932C62.5071 87.356 62.6471 87.872 62.6471 88.48C62.6471 89.072 62.5071 89.584 62.2271 90.016C61.9551 90.44 61.5631 90.768 61.0511 91C60.5391 91.224 59.9271 91.336 59.2151 91.336H56.5631L56.9591 90.928V94H56.0711ZM61.8071 94L59.6471 90.952H60.6071L62.7791 94H61.8071ZM56.9591 91L56.5631 90.58H59.1911C60.0311 90.58 60.6671 90.396 61.0991 90.028C61.5391 89.66 61.7591 89.144 61.7591 88.48C61.7591 87.808 61.5391 87.288 61.0991 86.92C60.6671 86.552 60.0311 86.368 59.1911 86.368H56.5631L56.9591 85.948V91ZM65.535 89.356H69.975V90.112H65.535V89.356ZM65.631 93.232H70.683V94H64.743V85.6H70.503V86.368H65.631V93.232ZM72.7703 94V85.6H73.5023L77.3423 92.152H76.9583L80.7623 85.6H81.4943V94H80.6423V86.932H80.8463L77.3423 92.932H76.9223L73.3943 86.932H73.6223V94H72.7703ZM85.0233 89.356H89.4633V90.112H85.0233V89.356ZM85.1193 93.232H90.1713V94H84.2313V85.6H89.9913V86.368H85.1193V93.232ZM92.2586 94V85.6H95.4026C96.1146 85.6 96.7266 85.716 97.2386 85.948C97.7506 86.172 98.1426 86.5 98.4146 86.932C98.6946 87.356 98.8346 87.872 98.8346 88.48C98.8346 89.072 98.6946 89.584 98.4146 90.016C98.1426 90.44 97.7506 90.768 97.2386 91C96.7266 91.224 96.1146 91.336 95.4026 91.336H92.7506L93.1466 90.928V94H92.2586ZM97.9946 94L95.8346 90.952H96.7946L98.9666 94H97.9946ZM93.1466 91L92.7506 90.58H95.3786C96.2186 90.58 96.8546 90.396 97.2866 90.028C97.7266 89.66 97.9466 89.144 97.9466 88.48C97.9466 87.808 97.7266 87.288 97.2866 86.92C96.8546 86.552 96.2186 86.368 95.3786 86.368H92.7506L93.1466 85.948V91ZM100.931 94V85.6H101.819V94H100.931ZM108.224 94.072C107.592 94.072 107.004 93.968 106.46 93.76C105.924 93.544 105.456 93.244 105.056 92.86C104.664 92.468 104.356 92.016 104.132 91.504C103.916 90.984 103.808 90.416 103.808 89.8C103.808 89.184 103.916 88.62 104.132 88.108C104.356 87.588 104.664 87.136 105.056 86.752C105.456 86.36 105.924 86.06 106.46 85.852C106.996 85.636 107.584 85.528 108.224 85.528C108.856 85.528 109.44 85.636 109.976 85.852C110.512 86.06 110.976 86.356 111.368 86.74C111.768 87.124 112.076 87.576 112.292 88.096C112.516 88.616 112.628 89.184 112.628 89.8C112.628 90.416 112.516 90.984 112.292 91.504C112.076 92.024 111.768 92.476 111.368 92.86C110.976 93.244 110.512 93.544 109.976 93.76C109.44 93.968 108.856 94.072 108.224 94.072ZM108.224 93.28C108.728 93.28 109.192 93.196 109.616 93.028C110.048 92.852 110.42 92.608 110.732 92.296C111.052 91.976 111.3 91.608 111.476 91.192C111.652 90.768 111.74 90.304 111.74 89.8C111.74 89.296 111.652 88.836 111.476 88.42C111.3 87.996 111.052 87.628 110.732 87.316C110.42 86.996 110.048 86.752 109.616 86.584C109.192 86.408 108.728 86.32 108.224 86.32C107.72 86.32 107.252 86.408 106.82 86.584C106.388 86.752 106.012 86.996 105.692 87.316C105.38 87.628 105.132 87.996 104.948 88.42C104.772 88.836 104.684 89.296 104.684 89.8C104.684 90.296 104.772 90.756 104.948 91.18C105.132 91.604 105.38 91.976 105.692 92.296C106.012 92.608 106.388 92.852 106.82 93.028C107.252 93.196 107.72 93.28 108.224 93.28ZM114.618 94V85.6H117.762C118.474 85.6 119.086 85.716 119.598 85.948C120.11 86.172 120.502 86.5 120.774 86.932C121.054 87.356 121.194 87.872 121.194 88.48C121.194 89.072 121.054 89.584 120.774 90.016C120.502 90.44 120.11 90.768 119.598 91C119.086 91.224 118.474 91.336 117.762 91.336H115.11L115.506 90.928V94H114.618ZM120.354 94L118.194 90.952H119.154L121.326 94H120.354ZM115.506 91L115.11 90.58H117.738C118.578 90.58 119.214 90.396 119.646 90.028C120.086 89.66 120.306 89.144 120.306 88.48C120.306 87.808 120.086 87.288 119.646 86.92C119.214 86.552 118.578 86.368 117.738 86.368H115.11L115.506 85.948V91Z" fill="#00040F"/>
<g clip-path="url(#clip0_107_2)">
<path d="M21.8705 0.425903C21.8321 0.519073 21.704 0.891754 21.5887 1.26443C21.4733 1.6238 21.3196 2.22275 21.2683 2.59543C21.2171 2.9548 21.0762 3.67354 20.9737 4.19263C20.7174 5.36391 20.4099 9.18388 20.3074 12.3117C20.2433 14.428 20.3202 17.1166 20.5893 22.241L20.679 23.7849L21.0762 23.9979C21.6271 24.2907 22.2805 24.477 22.8443 24.517C23.1133 24.5436 23.3312 24.5835 23.3312 24.6235C23.3312 24.6634 23.5874 24.7832 23.9077 24.8763C24.6765 25.1159 24.8302 25.3289 24.5612 25.7548C24.4458 25.9411 24.3946 26.0876 24.433 26.0876C24.4843 26.0876 24.4202 26.2073 24.2921 26.3538C24.164 26.5002 23.959 26.62 23.8308 26.62C23.7027 26.62 23.5233 26.6998 23.4337 26.793C23.344 26.8862 23.1774 27.0326 23.0621 27.0991C22.9468 27.1657 22.4983 27.5517 22.0627 27.951L21.2812 28.683V29.6014C21.2812 30.1471 21.3837 30.8259 21.5246 31.2651C21.6527 31.6777 21.8577 32.3699 21.9858 32.8091C22.1012 33.2483 22.2549 33.6609 22.3062 33.7408C22.3574 33.8073 22.4471 34.0869 22.4983 34.3397C22.5496 34.5926 22.6393 34.8588 22.6905 34.9387C22.7418 35.0052 22.8571 35.3114 22.9468 35.6042C23.0365 35.897 23.3183 36.5891 23.5618 37.1348C24.6252 39.504 24.5996 39.3975 24.6637 40.8616C24.7277 42.4189 24.9327 44.655 25.1249 45.7863C25.5093 48.1821 25.6502 48.9408 25.7527 49.1804C25.8168 49.3268 25.9321 49.8059 26.0218 50.2452C26.0987 50.6844 26.214 51.1636 26.2652 51.31C26.3293 51.4564 26.6112 52.3482 26.9187 53.3065C27.2133 54.2515 27.5721 55.263 27.7002 55.5292C27.8412 55.8087 27.9437 56.0883 27.9437 56.1814C27.9437 56.4476 29.6862 59.9348 30.3652 61.0263C31.198 62.3706 31.339 62.5835 32.0308 63.4886C33.3121 65.1524 33.4146 65.2189 35.1827 65.4984C35.7465 65.5916 36.259 65.7114 36.323 65.7779C36.3999 65.8312 36.5665 65.8844 36.6946 65.8844C37.489 65.8844 44.0233 68.1072 44.0233 68.3734C44.0233 68.5331 42.614 69.345 42.3321 69.345C42.2552 69.345 42.1655 69.3849 42.1399 69.4382C42.1271 69.5047 41.3583 69.9306 40.4358 70.3832C39.5262 70.849 38.4499 71.4347 38.0527 71.6876C37.6555 71.9404 37.2583 72.1401 37.1815 72.1401C36.938 72.1401 36.4896 72.6326 36.6433 72.739C36.7202 72.779 36.874 72.7257 36.9893 72.6193C37.0918 72.4995 37.2712 72.4063 37.3737 72.4063C37.4762 72.4063 37.553 72.3397 37.553 72.2732C37.553 72.1933 37.6171 72.1401 37.6812 72.1401C37.7965 72.1401 38.2193 71.9671 39.539 71.3548C39.8208 71.2217 40.2565 71.062 40.4999 71.0087C40.7433 70.9555 41.0124 70.8756 41.0765 70.8357C41.1533 70.7825 41.2687 70.7292 41.3327 70.7159C41.4096 70.7026 42.268 70.463 43.2546 70.1968C45.3174 69.6245 46.6755 69.518 46.7524 69.9173C46.778 70.0371 46.714 70.1436 46.6115 70.1436C46.1758 70.1436 43.1649 72.6858 43.3571 72.8855C43.4083 72.9387 43.7543 72.7657 44.113 72.5128C44.4846 72.2466 45.0099 71.9404 45.279 71.8207C45.5352 71.7009 45.958 71.5145 46.2015 71.408C46.7268 71.1552 48.5333 70.5429 48.6999 70.5429C48.7768 70.5429 49.1355 70.7292 49.5071 70.9422C50.4808 71.5411 50.6474 71.6476 50.9293 71.9138C51.0702 72.0336 51.2496 72.1401 51.3137 72.1401C51.3905 72.1401 51.5955 72.2732 51.7749 72.4462C52.9921 73.6042 55.2727 74.7622 57.4765 75.3478C58.4374 75.6007 58.9499 75.6539 60.5515 75.6539C62.5374 75.6539 63.4215 75.4942 65.433 74.8154C66.394 74.496 68.6618 73.3646 68.9949 73.0452C69.1358 72.9121 69.3152 72.8056 69.4049 72.8056C69.4946 72.8056 70.0583 72.2998 70.6605 71.6742C71.3908 70.9156 71.8521 70.5429 72.0443 70.5429C72.3518 70.5429 74.2224 71.1285 74.6068 71.3415C74.7221 71.408 75.1833 71.621 75.619 71.8073C76.0674 71.9937 76.4518 72.1933 76.4902 72.2466C76.6183 72.4329 77.5408 72.9786 77.6049 72.8988C77.733 72.779 75.6958 71.0354 74.2224 70.0105C73.8637 69.7576 73.5562 69.4914 73.5562 69.4249C73.5562 69.3716 73.7612 69.345 74.0046 69.3716C74.4018 69.4115 74.4402 69.3982 74.3762 69.172C74.3121 68.959 74.3633 68.9723 74.8246 69.2651C75.1065 69.4515 75.4524 69.6112 75.5933 69.6112C75.7215 69.6112 76.0033 69.7044 76.1955 69.8108C76.4005 69.9173 76.6568 70.0105 76.7593 70.0105C77.2846 70.0238 80.8465 71.062 81.6921 71.4613C81.833 71.5278 82.2302 71.7142 82.589 71.8739C82.9349 72.0336 83.3705 72.2865 83.5371 72.4196C83.8574 72.6858 84.1905 72.7524 84.1905 72.5527C84.1905 72.3264 79.6421 69.8774 76.6568 68.5198C76.3365 68.3601 76.2724 68.2935 76.4005 68.1737C76.5927 68.014 77.3487 67.7212 78.1687 67.4816C78.489 67.3884 78.8605 67.2686 79.0015 67.2154C79.1424 67.1622 79.6037 67.0291 80.0265 66.9359C80.4493 66.8427 80.8593 66.7229 80.9233 66.6697C81.0002 66.6031 81.3718 66.4967 81.7562 66.4301C83.0246 66.1905 84.9849 65.7513 85.0746 65.6848C85.1258 65.6581 85.6896 65.565 86.3174 65.4851C86.9452 65.4186 87.714 65.2855 88.0343 65.1923C88.9952 64.9394 90.0715 64.0609 90.9683 62.8231C91.1477 62.5702 91.3399 62.3306 91.3783 62.2907C91.4808 62.2108 92.7749 59.7884 92.7749 59.682C92.7749 59.642 92.9671 59.1762 93.2105 58.6571C93.4412 58.1247 93.7102 57.5124 93.7999 57.2995C94.0946 56.5408 95.0812 53.2932 95.3246 52.2417C95.3887 51.9489 95.5168 51.4697 95.5937 51.1769C95.6833 50.8841 95.773 50.4182 95.8115 50.1387C95.8499 49.8725 95.9268 49.6063 95.9908 49.5664C96.0549 49.5264 96.1062 49.2602 96.1062 48.9674C96.1062 48.6746 96.1574 48.3152 96.2343 48.1821C96.2983 48.049 96.388 47.703 96.4265 47.4235C96.4649 47.1439 96.529 46.7713 96.5674 46.5982C96.7724 45.6133 97.2593 42.3124 97.3874 40.9282C97.5155 39.6504 97.618 39.1846 97.9127 38.5856C98.1177 38.173 98.2843 37.7737 98.2843 37.6939C98.2843 37.614 98.3868 37.3611 98.5021 37.1082C98.8993 36.283 98.9249 36.2031 98.9249 35.897C98.9249 35.724 98.9762 35.5376 99.0402 35.4578C99.2324 35.2581 99.7833 33.2616 100.347 30.746C101.001 27.8711 101.218 26.3937 101.616 22.028C101.756 20.4707 101.756 13.656 101.616 11.7793C101.334 8.10577 101.116 6.05603 100.783 4.12608C100.667 3.50051 100.526 2.63536 100.462 2.19613C100.142 -1.52588e-05 100.206 0.0798416 99.3349 0.479141C99.0658 0.59893 98.7455 0.745346 98.6046 0.798584C97.7974 1.13133 94.6968 2.72853 94.2227 3.06128C93.9152 3.28755 93.6462 3.46058 93.6205 3.46058C93.5052 3.46058 92.1215 4.37897 91.468 4.89806C91.058 5.20419 90.584 5.52363 90.4046 5.6168C90.2252 5.69666 90.0843 5.81644 90.0843 5.883C90.0843 5.93623 90.0202 5.98948 89.9305 5.98948C89.8537 5.98948 89.4565 6.2823 89.0721 6.62836C88.6749 6.98772 88.2649 7.33379 88.1496 7.40034C87.9062 7.53343 86.9708 8.33203 86.1252 9.11732C85.4333 9.74289 85.4462 9.72958 84.498 10.5814C83.473 11.4865 79.8471 15.2532 78.6812 16.6242C78.1558 17.2497 77.4383 18.0883 77.0796 18.5009C76.7337 18.9135 76.2724 19.4725 76.0546 19.752C75.8496 20.0448 75.5805 20.3643 75.478 20.4841C75.3755 20.6038 74.9783 21.1096 74.6068 21.6021C73.9533 22.4539 73.6587 22.6536 73.4921 22.3608C73.4537 22.2809 73.223 22.2277 72.9796 22.2277C72.7362 22.2277 72.5055 22.1611 72.4671 22.0946C72.4287 22.0147 72.2493 21.9615 72.0699 21.9615C71.8905 21.9615 71.6471 21.9082 71.519 21.8284C71.1346 21.6287 68.3543 21.1495 66.3812 20.9499C63.2037 20.6438 57.3099 20.7502 54.978 21.1495C54.5937 21.2161 53.7865 21.3492 53.1843 21.4291C52.5821 21.5089 51.839 21.642 51.5187 21.7219C51.1983 21.8017 50.7115 21.9215 50.4296 21.9881C50.1477 22.0546 49.6608 22.1611 49.3405 22.2277C49.0202 22.2809 48.6487 22.3741 48.4949 22.4273C48.2643 22.5072 48.1105 22.3474 47.4827 21.4024C47.0727 20.7902 46.6755 20.2312 46.5987 20.1646C46.5218 20.0848 46.2143 19.6988 45.9196 19.2995C45.3943 18.5807 45.1252 18.248 43.7927 16.7306C41.7299 14.3481 38.514 11.2469 36.5921 9.78282C36.3102 9.56986 36.0027 9.31697 35.9002 9.21049C35.7977 9.11732 35.5671 8.93098 35.3877 8.8112C35.2083 8.69141 35.0033 8.51837 34.9521 8.4252C34.8624 8.27879 32.4024 6.49525 31.6849 6.05603C31.5696 5.97617 31.4415 5.883 31.403 5.84306C31.3262 5.76321 27.8283 3.46058 27.7643 3.46058C27.7387 3.46058 27.2133 3.14114 26.5855 2.75515C25.9577 2.36916 25.3555 2.00979 25.253 1.95655C25.1505 1.90331 24.6893 1.65042 24.228 1.39753C23.7668 1.14465 23.3183 0.931686 23.2415 0.931686C23.1518 0.931686 23.0749 0.878441 23.0749 0.825203C23.0749 0.771965 22.8571 0.638863 22.6008 0.532387C22.3318 0.425903 22.0755 0.319427 22.0243 0.292801C21.9602 0.266182 21.8962 0.319427 21.8705 0.425903Z" fill="#00040F"/>
<path d="M77.7842 73.2049C77.7842 73.2714 77.8482 73.338 77.9123 73.338C77.9892 73.338 78.0404 73.2714 78.0404 73.2049C78.0404 73.125 77.9892 73.0718 77.9123 73.0718C77.8482 73.0718 77.7842 73.125 77.7842 73.2049Z" fill="#00040F"/>
</g>
<defs>
<clipPath id="clip0_107_2">
<rect width="82" height="76" fill="white" transform="translate(20)"/>
</clipPath>
</defs>
</svg>
